<svg xmlns="http://www.w3.org/2000/svg" viewBox="0 0 400 240">
  <defs>
    <linearGradient id="bg" x1="0" y1="0" x2="1" y2="1">
      <stop offset="0%" stop-color="#0f172a"/>
      <stop offset="100%" stop-color="#0c2340"/>
    </linearGradient>
    <radialGradient id="hglow" cx="50%" cy="50%" r="50%">
      <stop offset="0%" stop-color="#06b6d4" stop-opacity="0.3"/>
      <stop offset="100%" stop-color="#06b6d4" stop-opacity="0"/>
    </radialGradient>
  </defs>
  <rect width="400" height="240" fill="url(#bg)"/>
  <circle cx="200" cy="115" r="95" fill="url(#hglow)"/>
  <!-- Headphones -->
  <path d="M120,115 Q120,60 200,60 Q280,60 280,115" fill="none" stroke="#06b6d4" stroke-width="8" stroke-linecap="round"/>
  <rect x="104" y="105" width="32" height="45" rx="13" fill="#0891b2"/>
  <rect x="264" y="105" width="32" height="45" rx="13" fill="#0891b2"/>
  <rect x="110" y="112" width="20" height="32" rx="8" fill="#0ea5e9"/>
  <rect x="270" y="112" width="20" height="32" rx="8" fill="#0ea5e9"/>
  <!-- Waveform underneath headphones -->
  <rect x="85" y="175" width="6" height="15" rx="3" fill="#06b6d4" opacity="0.7"/>
  <rect x="96" y="165" width="6" height="30" rx="3" fill="#0ea5e9" opacity="0.8"/>
  <rect x="107" y="170" width="6" height="20" rx="3" fill="#06b6d4" opacity="0.7"/>
  <rect x="118" y="158" width="6" height="40" rx="3" fill="#0891b2" opacity="0.9"/>
  <rect x="129" y="168" width="6" height="22" rx="3" fill="#06b6d4" opacity="0.7"/>
  <rect x="140" y="163" width="6" height="32" rx="3" fill="#0ea5e9" opacity="0.8"/>
  <rect x="151" y="172" width="6" height="14" rx="3" fill="#06b6d4" opacity="0.7"/>
  <rect x="162" y="160" width="6" height="38" rx="3" fill="#0891b2" opacity="0.9"/>
  <rect x="173" y="167" width="6" height="24" rx="3" fill="#06b6d4" opacity="0.7"/>
  <rect x="184" y="163" width="6" height="32" rx="3" fill="#0ea5e9" opacity="0.8"/>
  <rect x="195" y="158" width="6" height="40" rx="3" fill="#0891b2" opacity="0.9"/>
  <rect x="206" y="170" width="6" height="18" rx="3" fill="#06b6d4" opacity="0.7"/>
  <rect x="217" y="162" width="6" height="34" rx="3" fill="#0ea5e9" opacity="0.8"/>
  <rect x="228" y="175" width="6" height="12" rx="3" fill="#06b6d4" opacity="0.7"/>
  <rect x="239" y="165" width="6" height="28" rx="3" fill="#0891b2" opacity="0.8"/>
  <rect x="250" y="170" width="6" height="20" rx="3" fill="#06b6d4" opacity="0.7"/>
  <rect x="261" y="160" width="6" height="38" rx="3" fill="#0ea5e9" opacity="0.8"/>
  <rect x="272" y="168" width="6" height="22" rx="3" fill="#06b6d4" opacity="0.7"/>
  <rect x="283" y="175" width="6" height="15" rx="3" fill="#0891b2" opacity="0.7"/>
  <rect x="294" y="165" width="6" height="30" rx="3" fill="#0ea5e9" opacity="0.7"/>
  <!-- Question mark bubble -->
  <circle cx="320" cy="65" r="30" fill="#1e3a5f" stroke="#fbbf24" stroke-width="2"/>
  <text x="320" y="73" font-family="sans-serif" font-size="24" font-weight="bold" fill="#fbbf24" text-anchor="middle">?</text>
  <polygon points="310,93 300,108 320,95" fill="#1e3a5f"/>
  <!-- Label -->
  <rect x="10" y="10" width="180" height="28" rx="8" fill="#0891b2" opacity="0.75"/>
  <text x="100" y="29" font-family="sans-serif" font-size="13" font-weight="bold" fill="#e0f7ff" text-anchor="middle">TOEFL Listening</text>
</svg>
